<svg width="800" height="800" viewBox="0 0 800 800" fill="none" xmlns="http://www.w3.org/2000/svg">
<path d="M784.034 368.626L622.802 252.189C604.574 239.008 579.081 252.038 579.081 274.54V358.478H427.418V234.388C427.418 143.17 353.199 68.9367 261.966 68.9367H206.816C190.448 28.5402 156.586 0 110.302 0C49.3867 0 0 49.3867 0 110.3C0 171.227 49.3867 220.602 110.302 220.602C156.586 220.602 190.449 192.075 206.815 151.663H261.965C307.587 151.663 344.691 188.78 344.691 234.39V358.478H206.815C190.449 318.08 156.586 289.54 110.302 289.54C49.3882 289.54 0 338.927 0 399.841C0 460.769 49.3867 510.143 110.302 510.143C156.586 510.143 190.449 481.617 206.815 441.205H344.691V565.293C344.691 610.916 307.589 648.02 261.965 648.02H206.815C190.449 607.622 156.586 579.081 110.302 579.081C49.3882 579.081 0 628.468 0 689.383C0 750.31 49.3867 799.685 110.302 799.685C156.586 799.685 190.449 771.158 206.815 730.746H261.965C353.197 730.746 427.416 656.527 427.416 565.295V454.993H579.08V525.159C579.08 547.647 604.573 560.676 622.8 547.509L784.033 431.073C805.321 415.696 805.321 383.999 784.034 368.626Z" fill="#2759CD"/>
</svg>
